<svg xmlns="http://www.w3.org/2000/svg" viewBox="0 0 512 512">
  <defs>
    <linearGradient id="bg" x1="0" y1="0" x2="1" y2="1">
      <stop offset="0" stop-color="#7C173E"/>
      <stop offset="1" stop-color="#5C102E"/>
    </linearGradient>
    <linearGradient id="gold" x1="0" y1="0" x2="1" y2="1">
      <stop offset="0" stop-color="#F7DDA6"/>
      <stop offset="1" stop-color="#D7A85B"/>
    </linearGradient>
  </defs>

  <rect width="512" height="512" rx="108" fill="url(#bg)"/>
  <rect x="34" y="34" width="444" height="444" rx="92"
        fill="none" stroke="#EFCB83" stroke-width="10" opacity=".95"/>
  <rect x="52" y="52" width="408" height="408" rx="78"
        fill="none" stroke="#EFCB83" stroke-width="2" opacity=".5"/>

  <!-- Minimal justice scale -->
  <g stroke="url(#gold)" stroke-width="12" stroke-linecap="round" stroke-linejoin="round" fill="none">
    <path d="M256 142v212"/>
    <path d="M172 188h168"/>
    <path d="M191 188l-48 88"/>
    <path d="M321 188l48 88"/>
    <path d="M128 278h30c0 26-13 42-30 42s-30-16-30-42h30z" fill="url(#gold)" stroke="none"/>
    <path d="M354 278h30c0 26-13 42-30 42s-30-16-30-42h30z" fill="url(#gold)" stroke="none"/>
    <path d="M210 354h92"/>
  </g>

  <!-- İR monogram -->
  <text x="256" y="302"
        text-anchor="middle"
        font-family="Georgia, 'Times New Roman', serif"
        font-size="188"
        font-weight="700"
        letter-spacing="-18"
        fill="url(#gold)">İR</text>

  <!-- Accent dot echoing the generated logo -->
  <circle cx="228" cy="111" r="10" fill="#F7DDA6"/>
</svg>